<svg width="13" height="12" viewBox="0 0 13 12" fill="none" xmlns="http://www.w3.org/2000/svg">
<path d="M2.26822 5.85982C1.91466 5.43554 1.28409 5.37821 0.859816 5.73178C0.435539 6.08534 0.378215 6.71591 0.731779 7.14018L2.26822 5.85982ZM5.25 11L4.48178 11.6402C4.68445 11.8834 4.99031 12.0163 5.30639 11.9984C5.62246 11.9806 5.91142 11.8141 6.08542 11.5496L5.25 11ZM12.3354 2.04962C12.639 1.58823 12.511 0.968128 12.0496 0.664583C11.5882 0.361038 10.9681 0.488995 10.6646 0.950383L12.3354 2.04962ZM0.731779 7.14018L4.48178 11.6402L6.01822 10.3598L2.26822 5.85982L0.731779 7.14018ZM6.08542 11.5496L12.3354 2.04962L10.6646 0.950383L4.41458 10.4504L6.08542 11.5496Z" fill="currentColor"/>
</svg>