<svg width="167" height="36" viewBox="0 0 167 36" fill="none" xmlns="http://www.w3.org/2000/svg">
<path d="M3.97656 35.4453C4.97656 35.4453 5.75 35.1562 6.29688 34.5781C6.84375 34 7.11719 33.1875 7.11719 32.1406V12.1719H7.30469L15.6719 32.6562C16.25 34.0781 17.2734 34.7891 18.7422 34.7891C20.1641 34.7891 21.1719 34.0703 21.7656 32.6328L30.1328 12.1719H30.3203V32.1406C30.3203 33.1875 30.5938 34 31.1406 34.5781C31.7031 35.1562 32.4766 35.4453 33.4609 35.4453C34.4609 35.4453 35.2344 35.1562 35.7812 34.5781C36.3438 34 36.625 33.1875 36.625 32.1406V5.28125C36.625 3.84375 36.2266 2.72656 35.4297 1.92969C34.6328 1.11719 33.5156 0.710938 32.0781 0.710938C30.8438 0.710938 29.8438 0.992188 29.0781 1.55469C28.3281 2.11719 27.6953 3.05469 27.1797 4.36719L18.8125 25.1562H18.625L10.2344 4.36719C9.71875 3.05469 9.08594 2.11719 8.33594 1.55469C7.60156 0.992188 6.61719 0.710938 5.38281 0.710938C3.94531 0.710938 2.82031 1.11719 2.00781 1.92969C1.21094 2.72656 0.8125 3.84375 0.8125 5.28125V32.1406C0.8125 33.1875 1.08594 34 1.63281 34.5781C2.19531 35.1562 2.97656 35.4453 3.97656 35.4453ZM48.5781 35.3984C49.625 35.3984 50.6484 35.2344 51.6484 34.9062C52.6484 34.5625 53.5469 34.0781 54.3438 33.4531C55.1562 32.8125 55.7969 32.0469 56.2656 31.1562H56.4062C56.4062 31.375 56.4062 31.5938 56.4062 31.8125C56.4062 32.0156 56.4062 32.2266 56.4062 32.4453C56.4844 33.4453 56.8203 34.2031 57.4141 34.7188C58.0078 35.2344 58.7656 35.4922 59.6875 35.4922C60.6562 35.4922 61.4531 35.2031 62.0781 34.625C62.7031 34.0469 63.0156 33.1875 63.0156 32.0469V17.7266C63.0156 16.0391 62.5781 14.5703 61.7031 13.3203C60.8281 12.0547 59.5859 11.0781 57.9766 10.3906C56.3828 9.6875 54.5156 9.33594 52.375 9.33594C49.7656 9.33594 47.5234 9.77344 45.6484 10.6484C43.7891 11.5078 42.5625 12.6875 41.9688 14.1875C41.7344 14.6875 41.6172 15.2031 41.6172 15.7344C41.6172 16.5156 41.8828 17.1484 42.4141 17.6328C42.9453 18.1172 43.6328 18.3594 44.4766 18.3594C45.5547 18.3594 46.4609 17.9375 47.1953 17.0938C47.9609 16.1094 48.7031 15.4219 49.4219 15.0312C50.1406 14.6406 51.0234 14.4453 52.0703 14.4453C53.3672 14.4453 54.3906 14.7734 55.1406 15.4297C55.9062 16.0703 56.2891 16.9766 56.2891 18.1484V19.8125L49.9609 20.1875C46.8203 20.3594 44.3984 21.1016 42.6953 22.4141C41.0078 23.7109 40.1641 25.5 40.1641 27.7812C40.1641 29.2812 40.5312 30.6094 41.2656 31.7656C42.0156 32.9062 43.0234 33.7969 44.2891 34.4375C45.5703 35.0781 47 35.3984 48.5781 35.3984ZM50.8281 30.4531C49.6719 30.4531 48.7422 30.1797 48.0391 29.6328C47.3359 29.0859 46.9844 28.3438 46.9844 27.4062C46.9844 26.5156 47.3281 25.7969 48.0156 25.25C48.7188 24.7031 49.7109 24.3828 50.9922 24.2891L56.2891 23.9609V25.7891C56.2891 26.6953 56.0391 27.5 55.5391 28.2031C55.0547 28.9062 54.3984 29.4609 53.5703 29.8672C52.7422 30.2578 51.8281 30.4531 50.8281 30.4531ZM70.8672 35.4922C71.9141 35.4922 72.7422 35.1875 73.3516 34.5781C73.9766 33.9531 74.2891 33.0703 74.2891 31.9297V20.7734C74.2891 19.2734 74.6016 18.1094 75.2266 17.2812C75.8516 16.4531 76.9453 16.0234 78.5078 15.9922C79.1797 15.9766 79.7578 15.8984 80.2422 15.7578C80.7422 15.6016 81.1562 15.3828 81.4844 15.1016C82.1406 14.5391 82.4688 13.7188 82.4688 12.6406C82.4688 12.0625 82.3828 11.5625 82.2109 11.1406C82.0547 10.7031 81.8125 10.3594 81.4844 10.1094C81.2344 9.90625 80.9297 9.75 80.5703 9.64062C80.2266 9.53125 79.8203 9.47656 79.3516 9.47656C78.1016 9.47656 77 9.91406 76.0469 10.7891C75.1094 11.6641 74.4688 12.8828 74.125 14.4453H73.9844V12.8047C73.9844 11.7109 73.6797 10.8672 73.0703 10.2734C72.4766 9.66406 71.7031 9.35938 70.75 9.35938C69.7656 9.35938 68.9688 9.66406 68.3594 10.2734C67.75 10.8672 67.4453 11.7109 67.4453 12.8047V31.9297C67.4453 33.0703 67.7578 33.9531 68.3828 34.5781C69.0078 35.1875 69.8359 35.4922 70.8672 35.4922ZM88.5156 35.4922C89.5156 35.4922 90.3359 35.1953 90.9766 34.6016C91.6172 33.9922 91.9375 33.1016 91.9375 31.9297V26.8438L94.1172 24.8281L100.562 33.3594C101.094 34.1719 101.602 34.7266 102.086 35.0234C102.57 35.3359 103.18 35.4922 103.914 35.4922C104.867 35.4922 105.648 35.2031 106.258 34.625C106.867 34.0469 107.172 33.3047 107.172 32.3984C107.172 31.9453 107.102 31.5391 106.961 31.1797C106.836 30.8203 106.586 30.3906 106.211 29.8906L99.2031 20.9609L105.602 14.9141C106.102 14.4609 106.438 14.0469 106.609 13.6719C106.797 13.2969 106.891 12.8516 106.891 12.3359C106.891 11.4922 106.602 10.7891 106.023 10.2266C105.445 9.64844 104.719 9.35938 103.844 9.35938C103.328 9.35938 102.859 9.46875 102.438 9.6875C102.031 9.89062 101.594 10.2344 101.125 10.7188L92.0312 19.8359H91.9375V4.25C91.9375 3.07812 91.6172 2.1875 90.9766 1.57812C90.3359 0.96875 89.5156 0.664062 88.5156 0.664062C87.5156 0.664062 86.6953 0.96875 86.0547 1.57812C85.4141 2.1875 85.0938 3.07812 85.0938 4.25V31.9297C85.0938 33.1016 85.4141 33.9922 86.0547 34.6016C86.6953 35.1953 87.5156 35.4922 88.5156 35.4922ZM129.695 35.4922C130.664 35.4922 131.469 35.2031 132.109 34.625C132.75 34.0312 133.07 33.1719 133.07 32.0469V28.7891H134.992C135.914 28.7891 136.625 28.5312 137.125 28.0156C137.641 27.4844 137.898 26.8047 137.898 25.9766C137.898 25.1328 137.648 24.4531 137.148 23.9375C136.648 23.4062 135.93 23.1406 134.992 23.1406H133.07V5.77344C133.07 4.19531 132.547 2.95313 131.5 2.04688C130.453 1.125 129.031 0.664062 127.234 0.664062C125.797 0.664062 124.578 1.00781 123.578 1.69531C122.578 2.38281 121.492 3.625 120.32 5.42188C119.102 7.23438 117.922 9.00781 116.781 10.7422C115.641 12.4766 114.57 14.1406 113.57 15.7344C112.586 17.3281 111.711 18.8203 110.945 20.2109C110.414 21.1328 110.031 21.9531 109.797 22.6719C109.578 23.375 109.469 24.0938 109.469 24.8281C109.469 26 109.859 26.9531 110.641 27.6875C111.422 28.4219 112.453 28.7891 113.734 28.7891H126.344V32.0469C126.344 33.1719 126.656 34.0312 127.281 34.625C127.922 35.2031 128.727 35.4922 129.695 35.4922ZM126.484 23.3281H115.656V23.1406C116.578 21.4375 117.555 19.7422 118.586 18.0547C119.617 16.3516 120.766 14.5547 122.031 12.6641C123.312 10.7578 124.75 8.64062 126.344 6.3125H126.484V23.3281ZM144.578 35H163.305C164.227 35 164.945 34.7422 165.461 34.2266C165.977 33.6953 166.234 33.0156 166.234 32.1875C166.234 31.3281 165.977 30.6484 165.461 30.1484C164.945 29.6328 164.227 29.375 163.305 29.375H150.555V29.2344L157.867 22.2031C159.711 20.4531 161.18 18.9453 162.273 17.6797C163.383 16.3984 164.18 15.1875 164.664 14.0469C165.164 12.9062 165.414 11.6484 165.414 10.2734C165.414 8.33594 164.906 6.625 163.891 5.14062C162.891 3.65625 161.492 2.5 159.695 1.67188C157.898 0.84375 155.805 0.429688 153.414 0.429688C151.289 0.429688 149.406 0.773438 147.766 1.46094C146.141 2.14844 144.805 3.04688 143.758 4.15625C142.727 5.25 142.016 6.42188 141.625 7.67188C141.453 8.15625 141.367 8.66406 141.367 9.19531C141.367 10.0703 141.633 10.7734 142.164 11.3047C142.695 11.8203 143.438 12.0781 144.391 12.0781C145.156 12.0781 145.773 11.9141 146.242 11.5859C146.711 11.2422 147.141 10.7188 147.531 10.0156C147.938 9.10938 148.414 8.35156 148.961 7.74219C149.523 7.13281 150.164 6.67969 150.883 6.38281C151.617 6.08594 152.438 5.9375 153.344 5.9375C154.359 5.9375 155.25 6.14062 156.016 6.54688C156.797 6.95312 157.406 7.51562 157.844 8.23438C158.297 8.95312 158.523 9.78125 158.523 10.7188C158.523 11.5312 158.375 12.2969 158.078 13.0156C157.781 13.7344 157.25 14.5469 156.484 15.4531C155.734 16.3438 154.664 17.4609 153.273 18.8047L143.195 28.4375C142.477 29.0938 141.969 29.6797 141.672 30.1953C141.391 30.7109 141.25 31.3047 141.25 31.9766C141.25 32.8672 141.523 33.5938 142.07 34.1562C142.633 34.7188 143.469 35 144.578 35Z" fill="black"/>
</svg>
