<svg width="30" height="30" viewBox="0 0 30 30" fill="none" xmlns="http://www.w3.org/2000/svg"><path fill-rule="evenodd" clip-rule="evenodd" d="M6.272 7.365C6 7.9 6 8.6 6 10v6c0 1.4 0 2.1.272 2.635a2.5 2.5 0 0 0 1.093 1.092C7.9 20 8.6 20 10 20h10c1.4 0 2.1 0 2.635-.273a2.5 2.5 0 0 0 1.092-1.092C24 18.1 24 17.4 24 16v-6c0-1.4 0-2.1-.273-2.635a2.5 2.5 0 0 0-1.092-1.093C22.1 6 21.4 6 20 6H10c-1.4 0-2.1 0-2.635.272a2.5 2.5 0 0 0-1.093 1.093zm1.804 13.91c.022.086.05.164.087.236a1.5 1.5 0 0 0 .656.655c.32.164.74.164 1.581.164h9.2c.84 0 1.26 0 1.581-.163a1.5 1.5 0 0 0 .655-.656 1.12 1.12 0 0 0 .088-.236 6.794 6.794 0 0 1-.174.017c-.471.038-1.043.038-1.7.038H9.95c-.657 0-1.229 0-1.7-.038a6.406 6.406 0 0 1-.174-.017zm1.96 2.385c.02.127.052.233.1.328.12.235.311.426.547.546.267.136.617.136 1.317.136h6c.7 0 1.05 0 1.318-.136a1.25 1.25 0 0 0 .546-.546c.048-.095.08-.2.1-.328h-9.928z" fill="currentColor"/></svg>
