<svg width="30" height="30" viewBox="0 0 30 30" fill="none" xmlns="http://www.w3.org/2000/svg"><path fill-rule="evenodd" clip-rule="evenodd" d="M25 15c0 5.523-4.477 10-10 10S5 20.523 5 15 9.477 5 15 5s10 4.477 10 10zm-7.447-4.76c.733.635 1.197 1.575 1.197 2.76 0 .885-.226 1.54-.65 2.035-.38.445-.874.691-1.225.866l-.04.02c-.397.198-.63.326-.797.52-.139.162-.288.444-.288 1.059a.75.75 0 0 1-1.5 0c0-.885.226-1.54.65-2.035.38-.445.874-.691 1.225-.866l.04-.02c.397-.198.63-.325.797-.52.139-.162.288-.444.288-1.059 0-.764-.286-1.285-.678-1.626-.408-.353-.977-.547-1.572-.547-.595 0-1.164.194-1.572.547-.392.34-.678.862-.678 1.626a.75.75 0 0 1-1.5 0c0-1.185.464-2.125 1.197-2.76.717-.62 1.648-.913 2.553-.913s1.836.293 2.553.914zM15 21a.835.835 0 1 0 0-1.67.835.835 0 0 0 0 1.67z" fill="currentColor"/></svg>
