<svg width="30" height="30" viewBox="0 0 30 30" fill="none" xmlns="http://www.w3.org/2000/svg"><path d="M15.368 22.206c-.51 0-.897-.132-1.162-.397a2.132 2.132 0 0 1-.551-1.006 6.257 6.257 0 0 1-.164-1.267 84.38 84.38 0 0 1-.01-1.2c0-.452-.158-.823-.474-1.113-.316-.297-.72-.445-1.21-.445-.813 0-1.445-.22-1.896-.658-.452-.445-.678-1.064-.678-1.858 0-.606.178-1.16.533-1.664a3.906 3.906 0 0 1 1.441-1.21 4.24 4.24 0 0 1 1.974-.464c.323 0 .645.042.968.126.322.084.613.164.87.242.259.077.455.116.59.116.13 0 .23-.065.3-.194.072-.135.107-.3.107-.493 0-.13-.064-.28-.193-.455a1.65 1.65 0 0 0-.474-.445 1.068 1.068 0 0 0-.6-.194.183.183 0 0 0-.136.049.278.278 0 0 0-.067.145.572.572 0 0 1-.146.348c-.077.084-.19.126-.338.126-.239 0-.442-.052-.61-.155a5.542 5.542 0 0 1-.455-.31.646.646 0 0 0-.406-.164.458.458 0 0 0-.358.184 5.43 5.43 0 0 0-.31.416c-.103.155-.235.29-.396.406-.162.117-.378.175-.649.175-.264 0-.474-.071-.629-.213-.148-.142-.222-.332-.222-.571 0-.2.052-.374.155-.523.103-.154.222-.312.358-.474.135-.167.255-.361.358-.58.103-.22.155-.494.155-.823 0-.354.132-.696.396-1.025.271-.33.694-.597 1.268-.803.58-.213 1.338-.32 2.274-.32 1.303 0 2.525.249 3.667.745a9.587 9.587 0 0 1 3.009 2.052 9.568 9.568 0 0 1 2.042 3.018 9.031 9.031 0 0 1 .735 3.62c0 .412-.074.777-.223 1.093-.148.31-.335.577-.56.803a2.29 2.29 0 0 1-.959-.861 5.475 5.475 0 0 1-.56-1.18 97.378 97.378 0 0 0-.35-1.046c-.096-.29-.203-.435-.319-.435a.205.205 0 0 0-.174.096c-.038.059-.09.12-.155.184-.058.058-.148.087-.27.087-.149 0-.32-.067-.513-.203a8.83 8.83 0 0 1-.58-.484 6.87 6.87 0 0 0-.552-.483c-.168-.142-.307-.213-.416-.213-.117 0-.223.058-.32.174a.59.59 0 0 0-.145.387c0 .123.1.258.3.406.2.142.429.297.687.465.258.167.487.345.687.532.2.187.3.38.3.58 0 .278-.084.542-.252.794a6.294 6.294 0 0 1-.512.658c-.168.193-.252.345-.252.455 0 .238.016.541.048.91.04.367-.064.75-.31 1.15-.096.162-.257.426-.483.794-.226.361-.503.742-.832 1.142-.323.4-.687.742-1.094 1.025-.4.284-.819.426-1.257.426zM17.845 9.24c.096 0 .196.036.3.107a.779.779 0 0 0 .416.097.367.367 0 0 0 .29-.136.54.54 0 0 0 .116-.348c0-.226-.116-.416-.348-.571-.226-.161-.507-.242-.842-.242-.4 0-.713.065-.939.194-.219.129-.329.31-.329.541 0 .162.052.29.155.387a.58.58 0 0 0 .397.146.76.76 0 0 0 .387-.087.803.803 0 0 1 .397-.088zM14.99 24.944a9.608 9.608 0 0 1-3.86-.783 10.08 10.08 0 0 1-3.193-2.158 10.3 10.3 0 0 1-2.158-3.193 9.608 9.608 0 0 1-.784-3.86c0-1.368.261-2.655.784-3.861a10.25 10.25 0 0 1 5.341-5.35 9.608 9.608 0 0 1 3.86-.785c1.375 0 2.665.261 3.87.784a10.217 10.217 0 0 1 3.194 2.167 10.102 10.102 0 0 1 2.167 3.183 9.608 9.608 0 0 1 .784 3.861 9.608 9.608 0 0 1-.784 3.86 10.218 10.218 0 0 1-5.36 5.352 9.607 9.607 0 0 1-3.86.783zm0-1.548a8.058 8.058 0 0 0 3.261-.667 8.542 8.542 0 0 0 2.69-1.82c.78-.78 1.39-1.68 1.829-2.699a8.058 8.058 0 0 0 .667-3.26 8.058 8.058 0 0 0-.667-3.262 8.464 8.464 0 0 0-1.83-2.69 8.66 8.66 0 0 0-2.699-1.819 8.058 8.058 0 0 0-3.26-.667 8.035 8.035 0 0 0-3.252.667A8.543 8.543 0 0 0 9.04 9a8.68 8.68 0 0 0-1.828 2.69 8.16 8.16 0 0 0-.658 3.26c0 1.155.22 2.242.658 3.261a8.8 8.8 0 0 0 1.829 2.7 8.542 8.542 0 0 0 2.69 1.819 8.058 8.058 0 0 0 3.26.667z" fill="currentColor"/></svg>
