<svg width="30" height="30" viewBox="0 0 30 30" fill="none" xmlns="http://www.w3.org/2000/svg"><path fill-rule="evenodd" clip-rule="evenodd" d="M17.046 6.121a2.427 2.427 0 0 0-4.217.22l-.137.275a.975.975 0 0 1-.604.502l-.478.136a4 4 0 0 0-2.882 3.449l-.552 5.521a5 5 0 0 1-1.44 3.038l-.03.03c-.63.63-.185 1.708.706 1.708h15.172c.89 0 1.337-1.077.707-1.707l-.031-.03a5 5 0 0 1-1.44-3.039l-.202-2.024a4.83 4.83 0 0 1-4.572-8.078zm.883 1.002a3.5 3.5 0 1 0 0 0zM15 24.5a2.5 2.5 0 0 0 2.5-2.5h-5a2.5 2.5 0 0 0 2.5 2.5z" fill="currentColor"/><circle cx="20.5" cy="9.5" r="3.5" fill="currentColor"/></svg>
