<svg width="30" height="30" viewBox="0 0 30 30" fill="none" xmlns="http://www.w3.org/2000/svg"><path d="M6.048 18.643c-.545 0-.914-.378-.914-.896 0-.062.01-.132.027-.203l.263-1.476-1.186.984a.989.989 0 0 1-.633.246c-.466 0-.87-.404-.87-.905 0-.378.246-.703.641-.853l1.45-.536-1.458-.544c-.405-.15-.642-.458-.642-.836 0-.492.413-.905.879-.905.237 0 .457.097.633.255l1.195 1.01-.272-1.528c-.01-.07-.018-.123-.018-.194 0-.51.37-.905.905-.905.519 0 .87.378.87.888 0 .07-.008.14-.017.21l-.273 1.53 1.205-1.002a.952.952 0 0 1 .641-.264c.466 0 .87.405.87.905 0 .378-.237.704-.641.835l-1.468.545 1.468.545c.404.14.641.466.641.844 0 .501-.404.914-.87.914a.985.985 0 0 1-.641-.255l-1.178-.984.255 1.476c.017.07.017.141.017.203.009.518-.351.896-.879.896zm8.965 0c-.545 0-.914-.378-.914-.896 0-.062.009-.132.027-.203l.263-1.476-1.186.984a.988.988 0 0 1-.633.246c-.466 0-.87-.404-.87-.905 0-.378.246-.703.641-.853l1.45-.536-1.459-.544c-.404-.15-.641-.458-.641-.836 0-.492.413-.905.879-.905.237 0 .457.097.633.255l1.195 1.01-.272-1.528c-.01-.07-.018-.123-.018-.194 0-.51.37-.905.905-.905.519 0 .87.378.87.888 0 .07-.008.14-.017.21l-.273 1.53 1.204-1.002a.952.952 0 0 1 .642-.264c.466 0 .87.405.87.905 0 .378-.237.704-.642.835l-1.467.545 1.468.545c.404.14.641.466.641.844 0 .501-.404.914-.87.914a.985.985 0 0 1-.642-.255l-1.177-.984.255 1.476a.82.82 0 0 1 .017.203c.009.518-.351.896-.879.896zm8.965 0c-.545 0-.914-.378-.914-.896a.89.89 0 0 1 .026-.203l.264-1.476-1.186.984a.989.989 0 0 1-.633.246c-.466 0-.87-.404-.87-.905 0-.378.246-.703.641-.853l1.45-.536-1.459-.544c-.404-.15-.641-.458-.641-.836 0-.492.413-.905.879-.905.237 0 .457.097.633.255l1.195 1.01-.273-1.528c-.009-.07-.017-.123-.017-.194 0-.51.369-.905.905-.905.519 0 .87.378.87.888 0 .07-.009.14-.017.21l-.273 1.53 1.204-1.002a.952.952 0 0 1 .642-.264c.466 0 .87.405.87.905 0 .378-.237.704-.642.835l-1.467.545 1.467.545c.405.14.642.466.642.844 0 .501-.404.914-.87.914a.985.985 0 0 1-.642-.255l-1.178-.984.255 1.476c.018.07.018.141.018.203.009.518-.352.896-.879.896z" fill="currentColor"/></svg>
