<svg width="30" height="30" viewBox="0 0 30 30" fill="none" xmlns="http://www.w3.org/2000/svg"><path d="M6.453 18.318a.627.627 0 0 1-.492-.044.658.658 0 0 1-.316-.404 11.354 11.354 0 0 1-.343-1.775 9.903 9.903 0 0 1-.027-1.609.668.668 0 0 1 .22-.466.61.61 0 0 1 .492-.131.571.571 0 0 1 .387.202.613.613 0 0 1 .15.448c-.012.615.008 1.151.06 1.609.06.45.147.908.265 1.37a.729.729 0 0 1-.053.502.561.561 0 0 1-.343.298zm-.43-5.484a.637.637 0 0 1-.37-.37c-.07-.187-.058-.4.035-.64a10.658 10.658 0 0 1 1.565-2.822A9.516 9.516 0 0 1 9.45 6.937a9.426 9.426 0 0 1 2.69-1.266 10.78 10.78 0 0 1 3.067-.43c.85 0 1.629.081 2.338.245a6.95 6.95 0 0 1 2.1.87c.165.1.279.22.343.36.065.141.056.294-.026.458-.082.181-.214.281-.396.299a1.095 1.095 0 0 1-.57-.141 7.852 7.852 0 0 0-1.715-.624 8.93 8.93 0 0 0-2.074-.22 8.786 8.786 0 0 0-3.454.695 8.708 8.708 0 0 0-2.9 2.012c-.838.88-1.492 1.951-1.96 3.217a.71.71 0 0 1-.352.404.662.662 0 0 1-.519.018zm18.8 3.41a.557.557 0 0 1-.423-.176.828.828 0 0 1-.202-.466c-.14-1.552-.492-2.88-1.055-3.98a11.083 11.083 0 0 0-2.206-2.98.742.742 0 0 1-.246-.457.556.556 0 0 1 .159-.44.605.605 0 0 1 .413-.21.604.604 0 0 1 .483.175c.692.639 1.29 1.33 1.793 2.074.504.739.911 1.58 1.222 2.523.31.937.524 2.024.641 3.26a.636.636 0 0 1-.14.484.552.552 0 0 1-.44.193zm-17.456 4.65a.586.586 0 0 1-.097-.431c.024-.164.1-.31.229-.44.188-.175.334-.392.44-.65.11-.258.166-.539.166-.844a3.817 3.817 0 0 0-.149-.958 28.805 28.805 0 0 1-.281-1.09 5.843 5.843 0 0 1-.14-1.336c0-1.048.198-2.033.597-2.953a7.657 7.657 0 0 1 1.652-2.434 7.79 7.79 0 0 1 2.435-1.653A7.32 7.32 0 0 1 15.18 7.5c1.23 0 2.343.234 3.34.703a7.324 7.324 0 0 1 2.575 2.004c.715.861 1.265 1.893 1.652 3.094.387 1.195.58 2.525.58 3.99 0 1.12-.085 2.074-.255 2.865-.164.785-.33 1.404-.5 1.855a.554.554 0 0 1-.37.351.62.62 0 0 1-.5-.017.593.593 0 0 1-.308-.352.682.682 0 0 1 .026-.492c.158-.375.308-.911.448-1.608.14-.703.211-1.568.211-2.593-.006-1.705-.293-3.2-.861-4.483-.569-1.289-1.371-2.288-2.409-2.997-1.03-.715-2.24-1.072-3.63-1.072-.878 0-1.704.167-2.478.501a6.426 6.426 0 0 0-2.039 1.389 6.498 6.498 0 0 0-1.38 2.039 6.122 6.122 0 0 0-.5 2.47c0 .498.043.922.131 1.274.088.346.176.682.264 1.01.093.323.14.692.14 1.108 0 .492-.088.955-.263 1.389-.17.433-.42.79-.747 1.072a.67.67 0 0 1-.501.158.624.624 0 0 1-.44-.263zm2.285 1.713a.678.678 0 0 1-.536.07.555.555 0 0 1-.351-.316.629.629 0 0 1-.018-.44c.053-.151.167-.29.343-.412a3.17 3.17 0 0 0 .764-.739 3.44 3.44 0 0 0 .493-.957.663.663 0 0 1 .307-.387.567.567 0 0 1 .466-.044.585.585 0 0 1 .352.325.612.612 0 0 1 .035.475 3.792 3.792 0 0 1-.44.949 5.144 5.144 0 0 1-.676.888c-.252.27-.498.465-.739.588zm1.934-5.176a.786.786 0 0 1 0 .518.554.554 0 0 1-.334.334.683.683 0 0 1-.536.009.641.641 0 0 1-.352-.387c-.14-.357-.272-.767-.395-1.23a6.18 6.18 0 0 1-.176-1.503c0-.75.14-1.45.422-2.1a5.443 5.443 0 0 1 1.16-1.723 5.501 5.501 0 0 1 1.723-1.17 5.298 5.298 0 0 1 2.109-.421c.463 0 .896.053 1.3.158.405.1.76.24 1.064.422.182.1.296.234.343.404a.65.65 0 0 1-.053.492.481.481 0 0 1-.316.255.64.64 0 0 1-.457-.053 6.815 6.815 0 0 0-.633-.254 2.318 2.318 0 0 0-.536-.132 5.927 5.927 0 0 0-.712-.035 4.01 4.01 0 0 0-2.1.562 4.221 4.221 0 0 0-1.503 1.494 4.063 4.063 0 0 0-.554 2.1c0 .476.061.897.184 1.267.123.363.24.694.352.993zm7.022-4.685a.782.782 0 0 1-.123-.545.56.56 0 0 1 .308-.413.604.604 0 0 1 .483-.044.738.738 0 0 1 .422.334c.252.44.48.914.686 1.424.21.504.378 1.096.5 1.775.124.68.185 1.495.185 2.444 0 1.248-.17 2.443-.51 3.586-.333 1.136-.782 2.086-1.344 2.847a.583.583 0 0 1-.448.238.614.614 0 0 1-.493-.167.557.557 0 0 1-.175-.422c0-.164.05-.314.149-.448.486-.598.873-1.398 1.16-2.4.287-1.002.43-2.068.43-3.2 0-1.054-.105-1.994-.316-2.82-.205-.833-.51-1.562-.914-2.189zM11.56 23.794a.616.616 0 0 1-.483.158.556.556 0 0 1-.44-.264.62.62 0 0 1-.105-.448.734.734 0 0 1 .255-.422 4.666 4.666 0 0 0 1.38-1.854 6.041 6.041 0 0 0 .325-3.691c-.088-.41-.178-.81-.272-1.196a5.114 5.114 0 0 1-.132-1.116c0-.58.135-1.087.404-1.52.27-.44.639-.783 1.108-1.029a3.307 3.307 0 0 1 1.59-.378c.82 0 1.489.232 2.004.694.516.457.894 1.102 1.134 1.934.246.832.37 1.808.37 2.927a12.197 12.197 0 0 1-.335 2.935 10.96 10.96 0 0 1-.94 2.558c-.399.762-.844 1.368-1.336 1.82a.6.6 0 0 1-.501.166.596.596 0 0 1-.43-.263.615.615 0 0 1-.097-.44.689.689 0 0 1 .237-.404c.457-.393.858-.911 1.204-1.556a8.41 8.41 0 0 0 .791-2.17 9.857 9.857 0 0 0 .237-2.558c-.023-.88-.117-1.647-.28-2.303-.165-.662-.414-1.175-.748-1.538-.334-.37-.77-.554-1.31-.554-.562 0-1.016.161-1.362.484-.34.322-.51.755-.51 1.3 0 .282.047.586.141.914.094.323.188.689.281 1.1.1.41.153.887.158 1.432a7.194 7.194 0 0 1-.606 2.988 5.944 5.944 0 0 1-1.732 2.294zm2.136.73a.66.66 0 0 1-.51.122.523.523 0 0 1-.404-.254.604.604 0 0 1-.097-.457.7.7 0 0 1 .255-.422c.305-.246.58-.54.827-.88.246-.34.465-.75.659-1.23a.71.71 0 0 1 .316-.369c.147-.082.314-.09.501-.026a.48.48 0 0 1 .334.334.687.687 0 0 1 0 .483 6.043 6.043 0 0 1-.817 1.565c-.352.492-.706.87-1.064 1.133zm2.488-5.08a.645.645 0 0 1-.756.544.528.528 0 0 1-.396-.255.67.67 0 0 1-.079-.465 7.05 7.05 0 0 0 .097-1.17 7.69 7.69 0 0 0-.08-1.203 8.364 8.364 0 0 0-.29-1.284.618.618 0 0 1 .036-.483.627.627 0 0 1 .369-.299.581.581 0 0 1 .475.044c.152.082.26.223.325.422.146.457.252.926.316 1.406.07.475.103.947.097 1.415 0 .463-.038.905-.114 1.327z" fill="#fff"/></svg>
