<svg width="28" height="28" viewBox="0 0 28 28" fill="none" xmlns="http://www.w3.org/2000/svg">
<path fill-rule="evenodd" clip-rule="evenodd" d="M3 14C3 7.92487 7.92487 3 14 3C20.0751 3 25 7.92487 25 14C25 20.0751 20.0751 25 14 25C7.92487 25 3 20.0751 3 14ZM14 8.25C14.4142 8.25 14.75 8.58579 14.75 9V13.25H19C19.4142 13.25 19.75 13.5858 19.75 14C19.75 14.4142 19.4142 14.75 19 14.75H14.75V19C14.75 19.4142 14.4142 19.75 14 19.75C13.5858 19.75 13.25 19.4142 13.25 19V14.75H9C8.58579 14.75 8.25 14.4142 8.25 14C8.25 13.5858 8.58579 13.25 9 13.25H13.25V9C13.25 8.58579 13.5858 8.25 14 8.25Z" fill="currentColor"/>
</svg>
