<svg width="20" height="22" viewBox="0 0 20 22" fill="none" xmlns="http://www.w3.org/2000/svg">
<path d="M10 19C14.3765 19 18 15.3686 18 11C18 6.62353 14.3686 3 9.99216 3C5.62353 3 2 6.62353 2 11C2 15.3686 5.63137 19 10 19ZM7.36471 14.2941C7.00392 14.2941 6.72157 14.0039 6.72157 13.6431C6.72157 13.4706 6.78431 13.3059 6.9098 13.1882L9.08235 11.0078L6.9098 8.83529C6.78431 8.7098 6.72157 8.55294 6.72157 8.38039C6.72157 8.01177 7.00392 7.73726 7.36471 7.73726C7.5451 7.73726 7.68628 7.8 7.81177 7.91765L10 10.098L12.2039 7.9098C12.3373 7.77647 12.4784 7.72157 12.651 7.72157C13.0118 7.72157 13.302 8.00392 13.302 8.36471C13.302 8.5451 13.2471 8.68628 13.1059 8.82745L10.9255 11.0078L13.098 13.1804C13.2314 13.298 13.2941 13.4627 13.2941 13.6431C13.2941 14.0039 13.0039 14.2941 12.6353 14.2941C12.4549 14.2941 12.2902 14.2314 12.1725 14.1059L10 11.9255L7.83529 14.1059C7.7098 14.2314 7.5451 14.2941 7.36471 14.2941Z" fill="currentColor"/>
</svg>
