<svg xmlns="http://www.w3.org/2000/svg" width="112" height="112" fill="none"><g clip-path="url(#a)"><g clip-path="url(#b)"><mask id="c" width="112" height="112" x="0" y="0" maskUnits="userSpaceOnUse" style="mask-type:luminance"><path fill="#fff" d="M112 0H0v112h112V0Z"/></mask><g mask="url(#c)"><path fill="#B4B8BD" d="M87.23 83.042c1.442-.329 2.662-1.764 2.724-3.207l2.483-65.775c.067-1.563-1.099-2.552-2.603-2.207l-39.305 9.009c-1.148.263-2.218-.64-2.201-1.86l.047-3.297c.022-1.568-1.184-2.56-2.694-2.214l-30.037 6.975c-1.507.345-2.718 1.89-2.704 3.449l.548 62.235c.01 1.165-.215 7.33 1.47 11.258 1.7 3.965 3.236 3.245 4.44 2.937L87.23 83.042Z"/><path stroke="#EDEEF1" stroke-linecap="round" stroke-linejoin="round" stroke-width="2.384" d="m84.904 79.744-69.378 17.66" opacity=".25"/><path stroke="#EDEEF1" stroke-linecap="round" stroke-linejoin="round" stroke-width="1.431" d="M15.305 93.091c-.304-2.252-.368-4.892-.386-6.953l-.549-62.236" opacity=".4"/><path stroke="#EDEEF1" stroke-linecap="round" stroke-linejoin="round" stroke-width="1.431" d="m50.849 22.257 39.305-9.01"/><g opacity=".9"><path fill="#657582" d="m89.285 82.844 2.482-61.53c.073-1.654-1.2-2.7-2.841-2.336L18.429 34.774a3.54 3.54 0 0 0-1.15.488c-1.087.704-1.696 1.926-1.685 3.194l.447 49.207c.012 1.287-.273 8.686 2.138 12.408.301.039.615.027.931-.051l70.175-17.176Z" opacity=".1"/><path fill="#657582" d="m88.966 82.893 2.45-60.732c.071-1.632-1.184-2.666-2.805-2.306L19.027 35.447c-.403.09-.786.256-1.134.481-1.073.695-1.675 1.9-1.663 3.152l.441 48.57c.011 1.27-.27 8.575 2.11 12.248.297.038.607.026.92-.05l69.265-16.955Z" opacity=".2"/><path fill="#657582" d="m88.647 82.943 2.417-59.936c.071-1.61-1.168-2.63-2.767-2.275L19.626 36.12a3.44 3.44 0 0 0-1.12.476c-1.059.685-1.652 1.875-1.641 3.11l.436 47.933c.011 1.254-.267 8.461 2.082 12.087.293.038.599.026.907-.05l68.357-16.732Z" opacity=".3"/><path fill="#657582" d="m88.327 82.993 2.386-59.139c.07-1.589-1.153-2.595-2.731-2.244L20.224 36.792c-.393.087-.766.25-1.104.469-1.046.676-1.631 1.85-1.62 3.069l.43 47.296c.01 1.236-.264 8.349 2.054 11.925.289.038.59.026.895-.049l67.448-16.509Z" opacity=".4"/><path fill="#657582" d="m88.008 83.043 2.353-58.342c.069-1.568-1.138-2.56-2.694-2.214L20.822 37.464a3.353 3.353 0 0 0-1.09.463c-1.03.667-1.608 1.826-1.598 3.028l.424 46.658c.011 1.22-.26 8.236 2.027 11.765.285.037.583.026.883-.048l66.54-16.287Z" opacity=".5"/><path fill="#657582" d="m87.688 83.093 2.321-57.545c.068-1.546-1.121-2.525-2.657-2.184L21.42 38.137a3.307 3.307 0 0 0-1.074.456c-1.017.658-1.587 1.8-1.576 2.987l.418 46.02c.01 1.204-.256 8.124 2 11.605.28.036.574.025.87-.048l65.63-16.064Z" opacity=".6"/><path fill="#657582" d="m87.369 83.143 2.288-56.748c.068-1.525-1.106-2.49-2.62-2.154L22.018 38.809c-.376.084-.734.24-1.059.45-1.003.65-1.565 1.776-1.555 2.946l.413 45.383c.01 1.187-.253 8.011 1.971 11.444.278.035.567.025.86-.047l64.72-15.842Z" opacity=".7"/><path fill="#657582" d="m87.05 83.193 2.256-55.951c.066-1.504-1.09-2.456-2.583-2.124L22.617 39.482a3.212 3.212 0 0 0-1.045.444c-.989.64-1.543 1.75-1.532 2.904l.406 44.746c.011 1.17-.249 7.899 1.944 11.283.274.035.56.024.847-.047L87.05 83.193Z" opacity=".8"/></g><path fill="#657582" d="M15.825 98.691c2.465 3.532 5.71.096 6.8-1.73l-6.8 1.73Z" opacity=".33"/><path stroke="#EDEEF1" stroke-linecap="round" stroke-linejoin="round" stroke-width="1.431" d="M14.37 23.902c-.008-.891.737-1.846 1.594-2.042l30.04-6.975"/><path stroke="#657582" stroke-linecap="round" stroke-linejoin="round" stroke-width="1.431" d="M87.23 83.042c1.442-.329 2.662-1.764 2.724-3.207l2.483-65.775c.067-1.563-1.099-2.552-2.603-2.207l-39.305 9.009c-1.148.263-2.218-.64-2.201-1.86l.047-3.297c.022-1.568-1.184-2.56-2.694-2.214l-30.037 6.975c-1.507.345-2.718 1.89-2.704 3.449l.548 62.235c.01 1.165-.215 7.33 1.47 11.258 1.7 3.965 3.236 3.245 4.44 2.937L87.23 83.042Z"/><path fill="url(#d)" d="M99.211 25.27c.097-1.887-1.13-2.342-2.182-2.08l-69.8 15.362c-2.362.52-4.927 2.316-5.434 4.251-.908 3.468-.661 18.806-.623 30.95.057 17.962.176 25.95-2.505 26.783l73.629-18.702c1.841-.468 3.225-2.037 3.376-3.931 1.306-16.408 3.019-42.517 3.54-52.632Z"/><path fill="#657582" d="M20.545 97.49c-.312 1.667-.847 2.675-1.878 3.047l73.628-18.703a4.507 4.507 0 0 0 3.3-3.448l.17-1.42L20.759 95.96l-.213 1.53Z" opacity=".2"/><path stroke="#E5E5E6" stroke-linecap="round" stroke-linejoin="round" stroke-width="1.431" d="M22.403 92.88c.028-.57.055-1.168.083-1.794.186-4.189-.184-10.756-.08-17.121.147-9.008-.64-26.302.673-30.532.59-1.896 2.5-3.052 4.457-3.483l69.8-15.364"/><path stroke="#EDEEF1" stroke-linecap="round" stroke-linejoin="round" stroke-width="1.431" d="M95.049 79.659 20.346 98.634" opacity=".5"/><path stroke="#fff" stroke-linecap="round" stroke-linejoin="round" stroke-width="1.431" d="m27.537 39.95 34.9-7.682 34.9-7.681"/><path stroke="#657582" stroke-linecap="round" stroke-linejoin="round" stroke-width="1.431" d="M99.047 25.388c.097-1.887-1.13-2.343-2.183-2.081l-69.8 15.363c-2.362.52-4.927 2.315-5.434 4.25-.908 3.468-.661 18.806-.623 30.95.057 17.962.176 25.95-2.504 26.784L92.13 81.951c1.842-.468 3.225-2.037 3.376-3.931 1.306-16.408 3.02-42.517 3.54-52.632Z"/></g></g></g><defs><clipPath id="a"><path fill="#fff" d="M0 0h112v112H0z"/></clipPath><clipPath id="b"><path fill="#fff" d="M0 0h112v112H0z"/></clipPath><linearGradient id="d" x1="61.406" x2="68.401" y1="61.254" y2="87.721" gradientUnits="userSpaceOnUse"><stop stop-color="#CECED1"/><stop offset=".5" stop-color="#DEDEE1"/><stop offset="1" stop-color="#EDEEF1"/></linearGradient></defs></svg>
