<?xml version="1.0" encoding="UTF-8"?>
<svg width="28" height="28" fill="none" viewBox="0 0 28 28" xmlns="http://www.w3.org/2000/svg">
<path d="m14 25c6.0751 0 11-4.9249 11-11 0-6.0751-4.9249-11-11-11-6.0751 0-11 4.9249-11 11 0 6.0751 4.9249 11 11 11zm1.25-16.25c0 0.69036-0.5596 1.25-1.25 1.25s-1.25-0.55963-1.25-1.25 0.5596-1.25 1.25-1.25 1.25 0.55964 1.25 1.25zm-4.085 3.75c0-0.4612 0.3739-0.835 0.835-0.835h2.25c0.4612 0 0.835 0.3738 0.835 0.835v6.165h1.415c0.4612 0 0.835 0.3738 0.835 0.835s-0.3738 0.835-0.835 0.835h-4.5c-0.4611 0-0.835-0.3738-0.835-0.835s0.3739-0.835 0.835-0.835h1.415v-5.33h-1.415c-0.4611 0-0.835-0.3738-0.835-0.835z" clip-rule="evenodd" fill="currentColor" fill-rule="evenodd"/>
</svg>
