<svg width="28" height="28" viewBox="0 0 28 28" fill="none" xmlns="http://www.w3.org/2000/svg">
<path fill-rule="evenodd" clip-rule="evenodd" d="M14 3C7.92487 3 3 7.92487 3 14C3 20.0751 7.92487 25 14 25C20.0751 25 25 20.0751 25 14C25 7.92487 20.0751 3 14 3ZM18.5303 12.4697L14.5303 8.46967C14.2374 8.17678 13.7626 8.17678 13.4697 8.46967L9.46967 12.4697C9.17678 12.7626 9.17678 13.2374 9.46967 13.5303C9.76256 13.8232 10.2374 13.8232 10.5303 13.5303L13.25 10.8107V19C13.25 19.4142 13.5858 19.75 14 19.75C14.4142 19.75 14.75 19.4142 14.75 19V10.8107L17.4697 13.5303C17.7626 13.8232 18.2374 13.8232 18.5303 13.5303C18.8232 13.2374 18.8232 12.7626 18.5303 12.4697Z" fill="currentColor"/>
</svg>
