
<svg width="28" height="28" viewBox="0 0 28 28" xmlns="http://www.w3.org/2000/svg">
<path opacity="0.82" fill-rule="evenodd" clip-rule="evenodd" d="M7.05818 7.05754C7.44871 6.66702 8.08187 6.66702 8.47239 7.05754L11.1723 9.7574C11.5628 10.1479 11.5628 10.7811 11.1723 11.1716C10.7817 11.5621 10.1486 11.5621 9.75804 11.1716L7.05818 8.47176C6.66766 8.08123 6.66766 7.44807 7.05818 7.05754Z" fill="currentColor"/>
<path opacity="0.65" fill-rule="evenodd" clip-rule="evenodd" d="M4.18213 14C4.18213 13.4477 4.62984 13 5.18213 13H9.00031C9.5526 13 10.0003 13.4477 10.0003 14C10.0003 14.5523 9.5526 15 9.00031 15H5.18213C4.62984 15 4.18213 14.5523 4.18213 14Z" fill="currentColor"/>
<path opacity="0.6" fill-rule="evenodd" clip-rule="evenodd" d="M7.05827 20.9423C6.66775 20.5518 6.66775 19.9186 7.05827 19.5281L9.75814 16.8282C10.1487 16.4377 10.7818 16.4377 11.1723 16.8282C11.5629 17.2188 11.5629 17.8519 11.1723 18.2424L8.47249 20.9423C8.08196 21.3328 7.4488 21.3328 7.05827 20.9423Z" fill="currentColor"/>
<path opacity="0.5" fill-rule="evenodd" clip-rule="evenodd" d="M14 18C14.5523 18 15 18.4477 15 19V22.8182C15 23.3705 14.5523 23.8182 14 23.8182C13.4477 23.8182 13 23.3705 13 22.8182V19C13 18.4477 13.4477 18 14 18Z" fill="currentColor"/>
<path opacity="0.5" fill-rule="evenodd" clip-rule="evenodd" d="M16.8289 16.8283C17.2195 16.4378 17.8526 16.4378 18.2431 16.8283L20.943 19.5282C21.3335 19.9187 21.3335 20.5518 20.943 20.9424C20.5525 21.3329 19.9193 21.3329 19.5288 20.9424L16.8289 18.2425C16.4384 17.852 16.4384 17.2188 16.8289 16.8283Z" fill="currentColor"/>
<path opacity="0.5" fill-rule="evenodd" clip-rule="evenodd" d="M18 14C18 13.4477 18.4477 13 19 13H22.8182C23.3705 13 23.8182 13.4477 23.8182 14C23.8182 14.5523 23.3705 15 22.8182 15H19C18.4477 15 18 14.5523 18 14Z" fill="currentColor"/>
<path opacity="0.5" fill-rule="evenodd" clip-rule="evenodd" d="M16.8288 11.1717C16.4383 10.7812 16.4383 10.148 16.8288 9.75746L19.5286 7.0576C19.9192 6.66708 20.5523 6.66708 20.9429 7.0576C21.3334 7.44813 21.3334 8.08129 20.9429 8.47182L18.243 11.1717C17.8525 11.5622 17.2193 11.5622 16.8288 11.1717Z" fill="currentColor"/>
<path fill-rule="evenodd" clip-rule="evenodd" d="M14 4.18164C14.5523 4.18164 15 4.62936 15 5.18164V8.99982C15 9.55211 14.5523 9.99982 14 9.99982C13.4477 9.99982 13 9.55211 13 8.99982V5.18164C13 4.62936 13.4477 4.18164 14 4.18164Z" fill="currentColor"/>
</svg>
