<?xml version="1.0" encoding="UTF-8"?>
<svg fill="none" width="28" height="28" viewBox="0 0 28 28" xmlns="http://www.w3.org/2000/svg">
<circle cx="14" cy="14" r="10" fill="#fff"/>
<path d="m14 25c6.0751 0 11-4.9249 11-11 0-6.0751-4.9249-11-11-11-6.0751 0-11 4.9249-11 11 0 6.0751 4.9249 11 11 11zm1.081-16.15-0.1138 6.4503c-0.0094 0.5273-0.4394 0.9499-0.9668 0.9499s-0.9575-0.4226-0.9668-0.9499l-0.1138-6.4503c-0.0107-0.60426 0.4762-1.0998 1.0806-1.0998 0.6043 0 1.0912 0.49558 1.0806 1.0998zm0.169 9.9002c0 0.6904-0.5596 1.25-1.25 1.25s-1.25-0.5596-1.25-1.25 0.5596-1.25 1.25-1.25 1.25 0.5596 1.25 1.25z" clip-rule="evenodd" fill="currentColor" fill-rule="evenodd"/>
</svg>
