<svg width="30" height="30" viewBox="0 0 30 30" fill="none" xmlns="http://www.w3.org/2000/svg">
<path fill-rule="evenodd" clip-rule="evenodd" d="M10.7409 5.27796C10.5417 5.39761 10.3705 5.56586 10.0281 5.90235L5.99051 9.87009C5.64809 10.2066 5.47688 10.3748 5.35377 10.5718C5.24462 10.7465 5.16365 10.9373 5.11382 11.1371C5.05762 11.3625 5.05552 11.6026 5.05133 12.0827L5.00193 17.7433C4.99774 18.2233 4.99565 18.4634 5.04791 18.6897C5.09424 18.8904 5.17187 19.0826 5.27796 19.2591C5.39761 19.4583 5.56586 19.6295 5.90235 19.9719L9.87009 24.0095C10.2066 24.3519 10.3748 24.5231 10.5718 24.6462C10.7465 24.7554 10.9373 24.8364 11.1371 24.8862C11.3625 24.9424 11.6026 24.9445 12.0827 24.9487L17.7433 24.9981H17.7433C18.2234 25.0023 18.4634 25.0044 18.6897 24.9521C18.8904 24.9058 19.0826 24.8281 19.2591 24.722C19.4583 24.6024 19.6295 24.4341 19.9719 24.0976L24.0095 20.1299C24.3519 19.7934 24.5231 19.6252 24.6462 19.4282C24.7554 19.2535 24.8364 19.0627 24.8862 18.8629C24.9424 18.6375 24.9445 18.3974 24.9487 17.9173L24.9981 12.2567V12.2567C25.0023 11.7766 25.0044 11.5366 24.9521 11.3103C24.9058 11.1096 24.8281 10.9174 24.722 10.7409C24.6024 10.5417 24.4342 10.3705 24.0977 10.0281L24.0976 10.0281L20.1299 5.99051C19.7934 5.64809 19.6252 5.47688 19.4282 5.35377C19.2535 5.24462 19.0627 5.16365 18.8629 5.11382C18.6375 5.05762 18.3974 5.05552 17.9173 5.05133L12.2567 5.00193C11.7767 4.99774 11.5366 4.99565 11.3103 5.04791C11.1096 5.09424 10.9174 5.17187 10.7409 5.27796ZM15 8.75C15.5523 8.75 16 9.19772 16 9.75V16.75C16 17.3023 15.5523 17.75 15 17.75C14.4477 17.75 14 17.3023 14 16.75V9.75C14 9.19772 14.4477 8.75 15 8.75ZM15 21.5C15.6904 21.5 16.25 20.9404 16.25 20.25C16.25 19.5596 15.6904 19 15 19C14.3096 19 13.75 19.5596 13.75 20.25C13.75 20.9404 14.3096 21.5 15 21.5Z" fill="currentColor"/>
</svg>
